<svg width="1600" height="420" viewBox="0 0 1600 420" fill="none" xmlns="http://www.w3.org/2000/svg">
  <defs>
    <linearGradient id="bg" x1="0" y1="0" x2="1600" y2="420" gradientUnits="userSpaceOnUse">
      <stop offset="0" stop-color="#0B1020"/>
      <stop offset="0.5" stop-color="#0E1A3A"/>
      <stop offset="1" stop-color="#0A2A4A"/>
    </linearGradient>
    <linearGradient id="accent" x1="0" y1="0" x2="1600" y2="0" gradientUnits="userSpaceOnUse">
      <stop offset="0" stop-color="#34D399"/>
      <stop offset="0.5" stop-color="#22D3EE"/>
      <stop offset="1" stop-color="#60A5FA"/>
    </linearGradient>
  </defs>

  <rect width="1600" height="420" fill="url(#bg)"/>

  <g opacity="0.16">
    <path d="M0 290 C160 230, 320 330, 480 270 C640 210, 800 320, 960 255 C1120 190, 1280 300, 1440 245 C1520 220, 1560 230, 1600 240" stroke="url(#accent)" stroke-width="3"/>
    <path d="M0 325 C160 265, 320 365, 480 305 C640 245, 800 355, 960 290 C1120 225, 1280 335, 1440 280 C1520 255, 1560 265, 1600 275" stroke="url(#accent)" stroke-width="2"/>
    <circle cx="230" cy="245" r="6" fill="#22D3EE"/>
    <circle cx="520" cy="300" r="6" fill="#34D399"/>
    <circle cx="830" cy="250" r="6" fill="#60A5FA"/>
    <circle cx="1120" cy="282" r="6" fill="#22D3EE"/>
    <circle cx="1400" cy="240" r="6" fill="#34D399"/>
  </g>

  <text x="80" y="165" fill="#F8FAFC" font-family="Segoe UI, Inter, Arial, sans-serif" font-size="56" font-weight="700">
    AI Human Performance Intelligence Platform
  </text>
  <text x="80" y="225" fill="#C7D2FE" font-family="Segoe UI, Inter, Arial, sans-serif" font-size="27" font-weight="500">
    Production-Grade MLOps " Microservices " Kubernetes " Observability
  </text>
  <rect x="80" y="262" width="760" height="5" rx="2.5" fill="url(#accent)" opacity="0.95"/>
</svg>
